<?xml version="1.0" encoding="UTF-8"?>
<svg xmlns="http://www.w3.org/2000/svg" xmlns:xlink="http://www.w3.org/1999/xlink" width="22pt" height="23pt" viewBox="0 0 22 23" version="1.1">
<g id="surface1">
<path style=" stroke:none;fill-rule:nonzero;fill:rgb(0.392157%,82.352941%,46.666667%);fill-opacity:1;" d="M 18.464844 20.984375 C 20.566406 20.984375 21.984375 19.621094 21.984375 17.601562 L 21.984375 3.382812 C 21.984375 1.363281 20.566406 0 18.464844 0 L 3.53125 0 C 1.433594 0 0.0117188 1.363281 0.0117188 3.382812 L 0.0117188 23 L 1.816406 20.984375 L 1.816406 3.382812 C 1.816406 2.472656 2.582031 1.738281 3.53125 1.734375 L 18.464844 1.734375 C 19.410156 1.738281 20.175781 2.472656 20.175781 3.382812 L 20.175781 17.601562 C 20.175781 18.511719 19.410156 19.246094 18.464844 19.25 L 5.933594 19.25 L 4.132812 20.984375 L 4.121094 20.972656 "/>
<path style=" stroke:none;fill-rule:nonzero;fill:rgb(0.392157%,82.352941%,46.666667%);fill-opacity:1;" d="M 7.796875 10.988281 L 6.105469 10.988281 L 6.105469 16.449219 L 7.796875 16.449219 C 11.578125 16.449219 11.578125 10.988281 7.796875 10.988281 Z M 7.796875 15.355469 L 7.246094 15.355469 L 7.246094 12.078125 L 7.796875 12.078125 C 10.003906 12.078125 10.003906 15.355469 7.796875 15.355469 Z M 7.796875 15.355469 "/>
<path style=" stroke:none;fill-rule:nonzero;fill:rgb(0.392157%,82.352941%,46.666667%);fill-opacity:1;" d="M 7.464844 9.957031 L 8.601562 9.957031 L 8.601562 5.585938 L 10.015625 5.585938 L 10.015625 4.503906 L 6.050781 4.503906 L 6.050781 5.585938 L 7.464844 5.585938 Z M 7.464844 9.957031 "/>
<path style=" stroke:none;fill-rule:nonzero;fill:rgb(0.392157%,82.352941%,46.666667%);fill-opacity:1;" d="M 13.054688 6.902344 L 11.089844 4.503906 L 10.726562 4.503906 L 10.726562 10.046875 L 11.878906 10.046875 L 11.878906 7 L 13.054688 8.464844 L 14.234375 7 L 14.226562 10.046875 L 15.378906 10.046875 L 15.378906 4.503906 L 15.019531 4.503906 Z M 13.054688 6.902344 "/>
<path style=" stroke:none;fill-rule:nonzero;fill:rgb(0.392157%,82.352941%,46.666667%);fill-opacity:1;" d="M 14.96875 13.71875 C 15.328125 13.480469 15.476562 13.058594 15.496094 12.640625 C 15.519531 11.679688 14.890625 10.984375 13.882812 10.984375 L 11.632812 10.984375 L 11.632812 16.453125 L 13.882812 16.453125 C 14.332031 16.449219 14.761719 16.273438 15.074219 15.964844 C 15.390625 15.65625 15.5625 15.242188 15.558594 14.808594 C 15.5625 14.375 15.339844 13.964844 14.96875 13.71875 Z M 12.773438 12.074219 L 13.78125 12.074219 C 14.109375 12.074219 14.308594 12.320312 14.308594 12.625 C 14.316406 12.765625 14.269531 12.90625 14.167969 13.007812 C 14.070312 13.113281 13.929688 13.175781 13.78125 13.175781 L 12.773438 13.175781 Z M 13.78125 15.359375 L 12.773438 15.359375 L 12.773438 14.265625 L 13.78125 14.265625 C 13.933594 14.261719 14.082031 14.320312 14.1875 14.421875 C 14.296875 14.523438 14.355469 14.664062 14.351562 14.808594 C 14.355469 14.953125 14.296875 15.09375 14.191406 15.199219 C 14.082031 15.300781 13.9375 15.359375 13.789062 15.359375 Z M 13.78125 15.359375 "/>
</g>
</svg>
